<svg xmlns="http://www.w3.org/2000/svg" version="1.1" xmlns:xlink="http://www.w3.org/1999/xlink" xmlns:svgjs="http://svgjs.dev/svgjs" width="1500" height="196" viewBox="0 0 1500 196"><g transform="matrix(1,0,0,1,-0.9090909090909918,0.21960327783600064)"><svg viewBox="0 0 396 52" data-background-color="#fffff5" preserveAspectRatio="xMidYMid meet" height="196" width="1500" xmlns="http://www.w3.org/2000/svg" xmlns:xlink="http://www.w3.org/1999/xlink"><g id="tight-bounds" transform="matrix(1,0,0,1,0.2400000000000091,-0.05826209411975469)"><svg viewBox="0 0 395.52 52.11652418823951" height="52.11652418823951" width="395.52"><g><svg viewBox="0 0 479.5725170595216 63.19188077808319" height="52.11652418823951" width="395.52"><g transform="matrix(1,0,0,1,84.05251705952159,9.50492279148995)"><svg viewBox="0 0 395.52 44.18203519510329" height="44.18203519510329" width="395.52"><g id="textblocktransform"><svg viewBox="0 0 395.52 44.18203519510329" height="44.18203519510329" width="395.52" id="textblock"><g><svg viewBox="0 0 395.52 44.18203519510329" height="44.18203519510329" width="395.52"><g transform="matrix(1,0,0,1,0,0)"><svg width="395.52" viewBox="4.65 -42.95 392.07000000000005 43.800000000000004" height="44.18203519510329" data-palette-color="url(#fa3cb8b7-3aac-46e3-a808-671c9a299175)"></svg></g></svg></g></svg></g></svg></g><g><svg viewBox="0 0 63.19188077808319 63.19188077808319" height="63.19188077808319" width="63.19188077808319"><g><svg></svg></g><g id="icon-0"><svg viewBox="0 0 63.19188077808319 63.19188077808319" height="63.19188077808319" width="63.19188077808319"><g></g><g transform="matrix(1,0,0,1,15.274223114588981,17.516050654513847)"><svg viewBox="0 0 32.643434548905226 28.159779469055497" height="28.159779469055497" width="32.643434548905226"><g><svg xmlns="http://www.w3.org/2000/svg" xmlns:xlink="http://www.w3.org/1999/xlink" version="1.1" x="0" y="0" viewBox="0.507 7.136 98.51299999999999 84.982" enable-background="new 0 0 100 100" xml:space="preserve" height="28.159779469055497" width="32.643434548905226" class="icon-cg-0" data-fill-palette-color="accent" id="cg-0"></svg></g></svg></g></svg></g></svg></g></svg></g><defs></defs><mask id="70250b59-8db1-41d5-b309-f25ac7c6e4d6"><g id="SvgjsG4000"><svg viewBox="0 0 395.52 52.11652418823951" height="52.11652418823951" width="395.52"><g><svg viewBox="0 0 479.5725170595216 63.19188077808319" height="52.11652418823951" width="395.52"><g transform="matrix(1,0,0,1,84.05251705952159,9.50492279148995)"><svg viewBox="0 0 395.52 44.18203519510329" height="44.18203519510329" width="395.52"><g id="SvgjsG3999"><svg viewBox="0 0 395.52 44.18203519510329" height="44.18203519510329" width="395.52" id="SvgjsSvg3998"><g><svg viewBox="0 0 395.52 44.18203519510329" height="44.18203519510329" width="395.52"><g transform="matrix(1,0,0,1,0,0)"><svg width="395.52" viewBox="4.65 -42.95 392.07000000000005 43.800000000000004" height="44.18203519510329" data-palette-color="url(#fa3cb8b7-3aac-46e3-a808-671c9a299175)"><path d="M26.3 0L17.4-14.85 11.6-14.85 11.6 0 4.65 0 4.65-37.9 19-37.9Q32.4-37.9 32.4-26.35L32.4-26.35Q32.4-22.05 30.4-19.3 28.4-16.55 24.45-15.5L24.45-15.5 34.05 0 26.3 0ZM11.6-31.95L11.6-20.8 19-20.8Q25.35-20.8 25.35-26.5L25.35-26.5Q25.35-29.35 23.78-30.65 22.2-31.95 19-31.95L19-31.95 11.6-31.95ZM45.5-12.45Q46.3-4.85 53.9-4.85L53.9-4.85Q55.85-4.85 57.7-5.35 59.55-5.85 61.85-6.95L61.85-6.95 63.65-1.65Q61.25-0.3 58.75 0.28 56.25 0.85 53.1 0.85L53.1 0.85Q48.45 0.85 45.15-1.03 41.85-2.9 40.17-6.25 38.5-9.6 38.5-14.05L38.5-14.05Q38.5-18.7 40.25-22.03 42-25.35 45-27.05 48-28.75 51.7-28.75L51.7-28.75Q57.55-28.75 60.87-25.28 64.2-21.8 64.25-15.1L64.25-15.1 64.25-12.45 45.5-12.45ZM51.7-23.05Q46.8-23.05 45.75-17.65L45.75-17.65 57.2-17.65Q56.95-20.45 55.6-21.75 54.25-23.05 51.7-23.05L51.7-23.05ZM88.75-42.3L95.45-42.3 95.45 0 88.75 0 88.75-2.2Q84.95 0.85 80.95 0.85L80.95 0.85Q75.25 0.85 71.8-2.95 68.35-6.75 68.35-14L68.35-14Q68.35-18.8 69.95-22.13 71.55-25.45 74.4-27.1 77.25-28.75 80.95-28.75L80.95-28.75Q85-28.75 88.75-25.75L88.75-25.75 88.75-42.3ZM82.25-5.2Q85.55-5.2 88.75-7.75L88.75-7.75 88.75-20.2Q85.45-22.75 82.25-22.75L82.25-22.75Q78.8-22.75 77.05-20.5 75.3-18.25 75.3-14L75.3-14Q75.3-9.65 77.05-7.43 78.8-5.2 82.25-5.2L82.25-5.2ZM108.74-12.45Q109.54-4.85 117.14-4.85L117.14-4.85Q119.09-4.85 120.94-5.35 122.79-5.85 125.09-6.95L125.09-6.95 126.89-1.65Q124.49-0.3 121.99 0.28 119.49 0.85 116.34 0.85L116.34 0.85Q111.69 0.85 108.39-1.03 105.09-2.9 103.42-6.25 101.74-9.6 101.74-14.05L101.74-14.05Q101.74-18.7 103.49-22.03 105.24-25.35 108.24-27.05 111.24-28.75 114.94-28.75L114.94-28.75Q120.79-28.75 124.12-25.28 127.44-21.8 127.49-15.1L127.49-15.1 127.49-12.45 108.74-12.45ZM114.94-23.05Q110.04-23.05 108.99-17.65L108.99-17.65 120.44-17.65Q120.19-20.45 118.84-21.75 117.49-23.05 114.94-23.05L114.94-23.05ZM143.84-36.9Q142.24-36.9 141.67-36.2 141.09-35.5 141.09-33.7L141.09-33.7 141.09-27.95 146.59-27.95 146.59-21.95 141.09-21.95 141.09 0 134.39 0 134.39-21.95 130.99-21.95 130.99-27.95 134.39-27.95 134.39-35.9Q134.39-39.5 136.29-41.23 138.19-42.95 142.29-42.95L142.29-42.95Q144.14-42.95 146.59-42.4L146.59-42.4 146.59-36.6Q145.39-36.9 143.84-36.9L143.84-36.9ZM151.84-32.8L151.84-40.35 158.54-40.35 158.54-32.8 151.84-32.8ZM151.84 0L151.84-27.95 158.54-27.95 158.54 0 151.84 0ZM181.39-28.55Q186.79-28.55 189.41-25.8 192.04-23.05 192.04-16.85L192.04-16.85 192.04 0 185.34 0 185.34-16.85Q185.34-19.8 184.16-21.18 182.99-22.55 180.09-22.55L180.09-22.55Q176.69-22.55 173.24-19.6L173.24-19.6 173.24 0 166.54 0 166.54-27.95 173.24-27.95 173.24-25.35Q177.04-28.55 181.39-28.55L181.39-28.55ZM205.08-12.45Q205.88-4.85 213.48-4.85L213.48-4.85Q215.43-4.85 217.28-5.35 219.13-5.85 221.43-6.95L221.43-6.95 223.23-1.65Q220.83-0.3 218.33 0.28 215.83 0.85 212.68 0.85L212.68 0.85Q208.03 0.85 204.73-1.03 201.43-2.9 199.76-6.25 198.08-9.6 198.08-14.05L198.08-14.05Q198.08-18.7 199.83-22.03 201.58-25.35 204.58-27.05 207.58-28.75 211.28-28.75L211.28-28.75Q217.13-28.75 220.46-25.28 223.78-21.8 223.83-15.1L223.83-15.1 223.83-12.45 205.08-12.45ZM211.28-23.05Q206.38-23.05 205.33-17.65L205.33-17.65 216.78-17.65Q216.53-20.45 215.18-21.75 213.83-23.05 211.28-23.05L211.28-23.05ZM253.03 0.85Q245.48 0.85 239.58-1.95L239.58-1.95 239.58-8.25Q245.63-5.1 253.03-5.1L253.03-5.1Q256.58-5.1 258.23-6.45 259.88-7.8 259.93-10.05L259.93-10.05Q259.93-12.25 258.4-13.35 256.88-14.45 253.58-15.35L253.58-15.35 250.18-16.3Q247.28-17.1 245.13-18.23 242.98-19.35 241.53-21.53 240.08-23.7 240.08-27.15L240.08-27.15Q240.08-32.75 243.43-35.68 246.78-38.6 252.88-38.6L252.88-38.6Q256.53-38.6 259.3-37.93 262.08-37.25 264.98-35.9L264.98-35.9 264.98-29.8Q259.53-32.65 252.88-32.65L252.88-32.65Q246.98-32.65 246.98-27.7L246.98-27.7Q247.03-25.5 248.35-24.45 249.68-23.4 252.93-22.55L252.93-22.55 256.38-21.6Q259.53-20.75 261.73-19.55 263.93-18.35 265.38-16.13 266.83-13.9 266.83-10.35L266.83-10.35Q266.78-5.15 263.1-2.15 259.43 0.85 253.03 0.85L253.03 0.85ZM287.98-21.25L281.58-21.25 281.58-8.6Q281.58-6.8 282.18-6.1 282.78-5.4 284.38-5.4L284.38-5.4Q285.98-5.4 287.43-5.8L287.43-5.8 287.43 0.05Q284.58 0.65 282.73 0.65L282.73 0.65Q278.58 0.65 276.73-1.1 274.88-2.85 274.88-6.5L274.88-6.5 274.88-21.25 271.18-21.25 271.18-27.3 274.88-27.3 274.88-36.8 281.58-36.8 281.58-27.3 287.98-27.3 287.98-21.25ZM303.52-27.95Q308.47-27.95 311.05-26.48 313.62-25 314.47-22.53 315.32-20.05 315.32-16.3L315.32-16.3 315.32 0 308.62 0 308.62-2.55Q306.77-0.85 305-0.1 303.22 0.65 301.12 0.65L301.12 0.65Q296.72 0.65 294.05-1.88 291.37-4.4 291.37-8.8L291.37-8.8Q291.37-13.3 294.15-15.78 296.92-18.25 301.77-18.25L301.77-18.25Q305.72-18.25 308.62-16.7L308.62-16.7Q308.57-18.6 308.15-19.75 307.72-20.9 306.47-21.53 305.22-22.15 302.77-22.15L302.77-22.15 298.07-22.15 298.07-27.95 303.52-27.95ZM302.32-4.7Q305.37-4.7 308.62-7.5L308.62-7.5 308.62-11.9Q305.97-13.25 303.17-13.25L303.17-13.25Q300.97-13.25 299.57-12.23 298.17-11.2 298.17-8.9L298.17-8.9Q298.17-6.65 299.35-5.68 300.52-4.7 302.32-4.7L302.32-4.7ZM337.07-21.25L330.67-21.25 330.67-8.6Q330.67-6.8 331.27-6.1 331.87-5.4 333.47-5.4L333.47-5.4Q335.07-5.4 336.52-5.8L336.52-5.8 336.52 0.05Q333.67 0.65 331.82 0.65L331.82 0.65Q327.67 0.65 325.82-1.1 323.97-2.85 323.97-6.5L323.97-6.5 323.97-21.25 320.27-21.25 320.27-27.3 323.97-27.3 323.97-36.8 330.67-36.8 330.67-27.3 337.07-27.3 337.07-21.25ZM361.42-27.95L368.12-27.95 368.12 0 361.42 0 361.42-2.6Q357.62 0.6 353.27 0.6L353.27 0.6Q347.87 0.6 345.24-2.18 342.62-4.95 342.62-11.15L342.62-11.15 342.62-27.95 349.32-27.95 349.32-11.15Q349.32-8.15 350.49-6.8 351.67-5.45 354.57-5.45L354.57-5.45Q357.97-5.45 361.42-8.35L361.42-8.35 361.42-27.95ZM385.67 0.85Q382.42 0.85 379.87 0.3 377.32-0.25 374.57-1.55L374.57-1.55 374.57-7.7Q377.22-6.2 379.94-5.53 382.67-4.85 385.67-4.85L385.67-4.85Q389.92-4.85 389.92-7.9L389.92-7.9Q389.92-9.2 389.19-9.83 388.47-10.45 386.92-10.85L386.92-10.85 382.82-11.75Q378.97-12.6 376.99-14.53 375.02-16.45 375.02-20.05L375.02-20.05Q375.02-28.75 385.87-28.75L385.87-28.75Q390.62-28.75 395.42-26.95L395.42-26.95 395.42-21.05Q393.57-21.95 391.17-22.5 388.77-23.05 386.17-23.05L386.17-23.05Q381.82-23.05 381.82-20.45L381.82-20.45Q381.82-19.25 382.54-18.7 383.27-18.15 384.72-17.8L384.72-17.8 388.77-16.9Q392.82-15.95 394.77-14.05 396.72-12.15 396.72-8.2L396.72-8.2Q396.72-3.75 393.72-1.45 390.72 0.85 385.67 0.85L385.67 0.85Z" opacity="1" transform="matrix(1,0,0,1,0,0)" fill="white" class="wordmark-text-0" id="SvgjsPath3997"></path></svg></g></svg></g></svg></g></svg></g><g><svg viewBox="0 0 63.19188077808319 63.19188077808319" height="63.19188077808319" width="63.19188077808319"><g><svg></svg></g><g id="SvgjsG3996"><svg viewBox="0 0 63.19188077808319 63.19188077808319" height="63.19188077808319" width="63.19188077808319"><g><path d="M0 31.596c0-17.45 14.146-31.596 31.596-31.596 17.45 0 31.596 14.146 31.596 31.596 0 17.45-14.146 31.596-31.596 31.596-17.45 0-31.596-14.146-31.596-31.596zM31.596 59.208c15.249 0 27.612-12.362 27.611-27.612 0-15.249-12.362-27.612-27.611-27.612-15.249 0-27.612 12.362-27.612 27.612 0 15.249 12.362 27.612 27.612 27.612z" fill="black" stroke="transparent"></path></g><g transform="matrix(1,0,0,1,15.274223114588981,17.516050654513847)"><svg viewBox="0 0 32.643434548905226 28.159779469055497" height="28.159779469055497" width="32.643434548905226"><g><svg xmlns="http://www.w3.org/2000/svg" xmlns:xlink="http://www.w3.org/1999/xlink" version="1.1" x="0" y="0" viewBox="0.507 7.136 98.51299999999999 84.982" enable-background="new 0 0 100 100" xml:space="preserve" height="28.159779469055497" width="32.643434548905226" class="icon-cg-0" data-fill-palette-color="accent" id="SvgjsSvg3995"><g fill="black"><path d="M22.048 42.728l3.781 4.727 12.813 17.784c0.061 0.085 0.131 0.137 0.207 0.163L23.004 90.852 15.187 44.39 22.048 42.728 22.048 42.728zM0.507 55.422c0.008-0.154 0.071-0.324 0.201-0.494l11.41-14.799c0.103-0.132 0.334-0.325 0.667-0.24l8.336 1.908c0.241 0.09 0.235 0.11 0.304 0.181l-6.647 1.611c-0.24 0.061-0.294 0.081-0.435 0.189L0.507 55.422 0.507 55.422zM19.537 87.812l-3.778-4.885c-0.027-0.031-0.048-0.07-0.065-0.111l2.475-1.047L19.537 87.812 19.537 87.812zM21.713 88.462c-0.284 0.136-0.674 0.322-1.066 0.287l-1.74-7.685c-0.065-0.285-0.329-0.418-0.598-0.307l-2.327 0.985c0.62-0.937 1.926-2.029 2.329-2.479L13.357 50.91 1.485 55.936c-0.115 0.047-0.224 0.073-0.325 0.082L14.382 44.89 21.713 88.462 21.713 88.462zM37.129 61.631l8.919-7.785-6.737 10.819L37.129 61.631 37.129 61.631zM39.486 86.967l-15.721 5.151c6.968-5.792 15.873-13.211 23.971-19.97L39.486 86.967 39.486 86.967zM98.23 86.475l-57.626 0.293 8.921-16.026L98.23 86.475 98.23 86.475zM99.02 85.784L50.25 70.055c9.45-7.883 17.344-14.474 18.996-15.854L99.02 85.784 99.02 85.784zM49.038 69.889c-0.044 0.032-0.08 0.07-0.104 0.112C40.737 76.85 31.492 84.555 24.16 90.65l22.048-35.404L49.038 69.889 49.038 69.889zM60.498 60.363l-10.686 8.914-2.798-14.482L60.498 60.363 60.498 60.363zM55.514 57.355l-7.964-3.289 8.808 1.449L55.514 57.355 55.514 57.355zM79.921 8.222c-0.108 1.073-5.56 50.118-5.56 50.118l-4.756-5.04c-0.146-0.159-0.437-0.178-0.604-0.038l-7.755 6.475c-0.039-0.035-4.927-2.043-4.927-2.043l6.82-14.868C63.143 42.824 79.249 9.773 79.921 8.222L79.921 8.222zM32.224 7.136c0.106 0.058 0.21 0.149 0.307 0.277l28.445 38.034-4.242 9.247-10.755-1.771c-0.06-0.01-0.313 0.062-0.359 0.104l-2.346 2.057L32.224 7.136 32.224 7.136zM26.009 46.159l5.342-38.442c0.013-0.084 0.03-0.16 0.056-0.228l11.118 48.247-5.909 5.181L26.009 46.159 26.009 46.159z" fill="black"></path></g></svg></g></svg></g></svg></g></svg></g></svg></g><defs><mask></mask></defs></svg><rect width="395.52" height="52.11652418823951" fill="black" stroke="none" visibility="hidden"></rect></g></mask><linearGradient x1="0" x2="1" y1="0.578" y2="0.595" id="fa3cb8b7-3aac-46e3-a808-671c9a299175"><stop stop-color="#6ee2f5" offset="0"></stop><stop stop-color="#6454f0" offset="1"></stop></linearGradient><rect width="395.52" height="52.11652418823951" fill="url(#fa3cb8b7-3aac-46e3-a808-671c9a299175)" mask="url(#70250b59-8db1-41d5-b309-f25ac7c6e4d6)" data-fill-palette-color="primary"></rect><mask id="6361fec0-4aa6-4606-b1db-81f6567f3c94"><g id="SvgjsG4011"><svg viewBox="0 0 395.52 52.11652418823951" height="52.11652418823951" width="395.52"><g><svg viewBox="0 0 479.5725170595216 63.19188077808319" height="52.11652418823951" width="395.52"><g transform="matrix(1,0,0,1,84.05251705952159,9.50492279148995)"><svg viewBox="0 0 395.52 44.18203519510329" height="44.18203519510329" width="395.52"><g id="SvgjsG4010"><svg viewBox="0 0 395.52 44.18203519510329" height="44.18203519510329" width="395.52" id="SvgjsSvg4009"><g><svg viewBox="0 0 395.52 44.18203519510329" height="44.18203519510329" width="395.52"><g transform="matrix(1,0,0,1,0,0)"><svg width="395.52" viewBox="4.65 -42.95 392.07000000000005 43.800000000000004" height="44.18203519510329" data-palette-color="url(#fa3cb8b7-3aac-46e3-a808-671c9a299175)"></svg></g></svg></g></svg></g></svg></g><g><svg viewBox="0 0 63.19188077808319 63.19188077808319" height="63.19188077808319" width="63.19188077808319"><g><svg></svg></g><g id="SvgjsG4008"><svg viewBox="0 0 63.19188077808319 63.19188077808319" height="63.19188077808319" width="63.19188077808319"><g><path d="M0 31.596c0-17.45 14.146-31.596 31.596-31.596 17.45 0 31.596 14.146 31.596 31.596 0 17.45-14.146 31.596-31.596 31.596-17.45 0-31.596-14.146-31.596-31.596zM31.596 59.208c15.249 0 27.612-12.362 27.611-27.612 0-15.249-12.362-27.612-27.611-27.612-15.249 0-27.612 12.362-27.612 27.612 0 15.249 12.362 27.612 27.612 27.612z" fill="white" stroke="transparent"></path></g><g transform="matrix(1,0,0,1,15.274223114588981,17.516050654513847)"><svg viewBox="0 0 32.643434548905226 28.159779469055497" height="28.159779469055497" width="32.643434548905226"><g><svg xmlns="http://www.w3.org/2000/svg" xmlns:xlink="http://www.w3.org/1999/xlink" version="1.1" x="0" y="0" viewBox="0.507 7.136 98.51299999999999 84.982" enable-background="new 0 0 100 100" xml:space="preserve" height="28.159779469055497" width="32.643434548905226" class="icon-cg-0" data-fill-palette-color="accent" id="SvgjsSvg4007"><g fill="white"><path d="M22.048 42.728l3.781 4.727 12.813 17.784c0.061 0.085 0.131 0.137 0.207 0.163L23.004 90.852 15.187 44.39 22.048 42.728 22.048 42.728zM0.507 55.422c0.008-0.154 0.071-0.324 0.201-0.494l11.41-14.799c0.103-0.132 0.334-0.325 0.667-0.24l8.336 1.908c0.241 0.09 0.235 0.11 0.304 0.181l-6.647 1.611c-0.24 0.061-0.294 0.081-0.435 0.189L0.507 55.422 0.507 55.422zM19.537 87.812l-3.778-4.885c-0.027-0.031-0.048-0.07-0.065-0.111l2.475-1.047L19.537 87.812 19.537 87.812zM21.713 88.462c-0.284 0.136-0.674 0.322-1.066 0.287l-1.74-7.685c-0.065-0.285-0.329-0.418-0.598-0.307l-2.327 0.985c0.62-0.937 1.926-2.029 2.329-2.479L13.357 50.91 1.485 55.936c-0.115 0.047-0.224 0.073-0.325 0.082L14.382 44.89 21.713 88.462 21.713 88.462zM37.129 61.631l8.919-7.785-6.737 10.819L37.129 61.631 37.129 61.631zM39.486 86.967l-15.721 5.151c6.968-5.792 15.873-13.211 23.971-19.97L39.486 86.967 39.486 86.967zM98.23 86.475l-57.626 0.293 8.921-16.026L98.23 86.475 98.23 86.475zM99.02 85.784L50.25 70.055c9.45-7.883 17.344-14.474 18.996-15.854L99.02 85.784 99.02 85.784zM49.038 69.889c-0.044 0.032-0.08 0.07-0.104 0.112C40.737 76.85 31.492 84.555 24.16 90.65l22.048-35.404L49.038 69.889 49.038 69.889zM60.498 60.363l-10.686 8.914-2.798-14.482L60.498 60.363 60.498 60.363zM55.514 57.355l-7.964-3.289 8.808 1.449L55.514 57.355 55.514 57.355zM79.921 8.222c-0.108 1.073-5.56 50.118-5.56 50.118l-4.756-5.04c-0.146-0.159-0.437-0.178-0.604-0.038l-7.755 6.475c-0.039-0.035-4.927-2.043-4.927-2.043l6.82-14.868C63.143 42.824 79.249 9.773 79.921 8.222L79.921 8.222zM32.224 7.136c0.106 0.058 0.21 0.149 0.307 0.277l28.445 38.034-4.242 9.247-10.755-1.771c-0.06-0.01-0.313 0.062-0.359 0.104l-2.346 2.057L32.224 7.136 32.224 7.136zM26.009 46.159l5.342-38.442c0.013-0.084 0.03-0.16 0.056-0.228l11.118 48.247-5.909 5.181L26.009 46.159 26.009 46.159z" fill="white"></path></g></svg></g></svg></g></svg></g></svg></g></svg></g><defs><mask></mask></defs><mask><g id="SvgjsG4006"><svg viewBox="0 0 395.52 52.11652418823951" height="52.11652418823951" width="395.52"><g><svg viewBox="0 0 479.5725170595216 63.19188077808319" height="52.11652418823951" width="395.52"><g transform="matrix(1,0,0,1,84.05251705952159,9.50492279148995)"><svg viewBox="0 0 395.52 44.18203519510329" height="44.18203519510329" width="395.52"><g id="SvgjsG4005"><svg viewBox="0 0 395.52 44.18203519510329" height="44.18203519510329" width="395.52" id="SvgjsSvg4004"><g><svg viewBox="0 0 395.52 44.18203519510329" height="44.18203519510329" width="395.52"><g transform="matrix(1,0,0,1,0,0)"><svg width="395.52" viewBox="4.65 -42.95 392.07000000000005 43.800000000000004" height="44.18203519510329" data-palette-color="url(#fa3cb8b7-3aac-46e3-a808-671c9a299175)"><path d="M26.3 0L17.4-14.85 11.6-14.85 11.6 0 4.65 0 4.65-37.9 19-37.9Q32.4-37.9 32.4-26.35L32.4-26.35Q32.4-22.05 30.4-19.3 28.4-16.55 24.45-15.5L24.45-15.5 34.05 0 26.3 0ZM11.6-31.95L11.6-20.8 19-20.8Q25.35-20.8 25.35-26.5L25.35-26.5Q25.35-29.35 23.78-30.65 22.2-31.95 19-31.95L19-31.95 11.6-31.95ZM45.5-12.45Q46.3-4.85 53.9-4.85L53.9-4.85Q55.85-4.85 57.7-5.35 59.55-5.85 61.85-6.95L61.85-6.95 63.65-1.65Q61.25-0.3 58.75 0.28 56.25 0.85 53.1 0.85L53.1 0.85Q48.45 0.85 45.15-1.03 41.85-2.9 40.17-6.25 38.5-9.6 38.5-14.05L38.5-14.05Q38.5-18.7 40.25-22.03 42-25.35 45-27.05 48-28.75 51.7-28.75L51.7-28.75Q57.55-28.75 60.87-25.28 64.2-21.8 64.25-15.1L64.25-15.1 64.25-12.45 45.5-12.45ZM51.7-23.05Q46.8-23.05 45.75-17.65L45.75-17.65 57.2-17.65Q56.95-20.45 55.6-21.75 54.25-23.05 51.7-23.05L51.7-23.05ZM88.75-42.3L95.45-42.3 95.45 0 88.75 0 88.75-2.2Q84.95 0.85 80.95 0.85L80.95 0.85Q75.25 0.85 71.8-2.95 68.35-6.75 68.35-14L68.35-14Q68.35-18.8 69.95-22.13 71.55-25.45 74.4-27.1 77.25-28.75 80.95-28.75L80.95-28.75Q85-28.75 88.75-25.75L88.75-25.75 88.75-42.3ZM82.25-5.2Q85.55-5.2 88.75-7.75L88.75-7.75 88.75-20.2Q85.45-22.75 82.25-22.75L82.25-22.75Q78.8-22.75 77.05-20.5 75.3-18.25 75.3-14L75.3-14Q75.3-9.65 77.05-7.43 78.8-5.2 82.25-5.2L82.25-5.2ZM108.74-12.45Q109.54-4.85 117.14-4.85L117.14-4.85Q119.09-4.85 120.94-5.35 122.79-5.85 125.09-6.95L125.09-6.95 126.89-1.65Q124.49-0.3 121.99 0.28 119.49 0.85 116.34 0.85L116.34 0.85Q111.69 0.85 108.39-1.03 105.09-2.9 103.42-6.25 101.74-9.6 101.74-14.05L101.74-14.05Q101.74-18.7 103.49-22.03 105.24-25.35 108.24-27.05 111.24-28.75 114.94-28.75L114.94-28.75Q120.79-28.75 124.12-25.28 127.44-21.8 127.49-15.1L127.49-15.1 127.49-12.45 108.74-12.45ZM114.94-23.05Q110.04-23.05 108.99-17.65L108.99-17.65 120.44-17.65Q120.19-20.45 118.84-21.75 117.49-23.05 114.94-23.05L114.94-23.05ZM143.84-36.9Q142.24-36.9 141.67-36.2 141.09-35.5 141.09-33.7L141.09-33.7 141.09-27.95 146.59-27.95 146.59-21.95 141.09-21.95 141.09 0 134.39 0 134.39-21.95 130.99-21.95 130.99-27.95 134.39-27.95 134.39-35.9Q134.39-39.5 136.29-41.23 138.19-42.95 142.29-42.95L142.29-42.95Q144.14-42.95 146.59-42.4L146.59-42.4 146.59-36.6Q145.39-36.9 143.84-36.9L143.84-36.9ZM151.84-32.8L151.84-40.35 158.54-40.35 158.54-32.8 151.84-32.8ZM151.84 0L151.84-27.95 158.54-27.95 158.54 0 151.84 0ZM181.39-28.55Q186.79-28.55 189.41-25.8 192.04-23.05 192.04-16.85L192.04-16.85 192.04 0 185.34 0 185.34-16.85Q185.34-19.8 184.16-21.18 182.99-22.55 180.09-22.55L180.09-22.55Q176.69-22.55 173.24-19.6L173.24-19.6 173.24 0 166.54 0 166.54-27.95 173.24-27.95 173.24-25.35Q177.04-28.55 181.39-28.55L181.39-28.55ZM205.08-12.45Q205.88-4.85 213.48-4.85L213.48-4.85Q215.43-4.85 217.28-5.35 219.13-5.85 221.43-6.95L221.43-6.95 223.23-1.65Q220.83-0.3 218.33 0.28 215.83 0.85 212.68 0.85L212.68 0.85Q208.03 0.85 204.73-1.03 201.43-2.9 199.76-6.25 198.08-9.6 198.08-14.05L198.08-14.05Q198.08-18.7 199.83-22.03 201.58-25.35 204.58-27.05 207.58-28.75 211.28-28.75L211.28-28.75Q217.13-28.75 220.46-25.28 223.78-21.8 223.83-15.1L223.83-15.1 223.83-12.45 205.08-12.45ZM211.28-23.05Q206.38-23.05 205.33-17.65L205.33-17.65 216.78-17.65Q216.53-20.45 215.18-21.75 213.83-23.05 211.28-23.05L211.28-23.05ZM253.03 0.85Q245.48 0.85 239.58-1.95L239.58-1.95 239.58-8.25Q245.63-5.1 253.03-5.1L253.03-5.1Q256.58-5.1 258.23-6.45 259.88-7.8 259.93-10.05L259.93-10.05Q259.93-12.25 258.4-13.35 256.88-14.45 253.58-15.35L253.58-15.35 250.18-16.3Q247.28-17.1 245.13-18.23 242.98-19.35 241.53-21.53 240.08-23.7 240.08-27.15L240.08-27.15Q240.08-32.75 243.43-35.68 246.78-38.6 252.88-38.6L252.88-38.6Q256.53-38.6 259.3-37.93 262.08-37.25 264.98-35.9L264.98-35.9 264.98-29.8Q259.53-32.65 252.88-32.65L252.88-32.65Q246.98-32.65 246.98-27.7L246.98-27.7Q247.03-25.5 248.35-24.45 249.68-23.4 252.93-22.55L252.93-22.55 256.38-21.6Q259.53-20.75 261.73-19.55 263.93-18.35 265.38-16.13 266.83-13.9 266.83-10.35L266.83-10.35Q266.78-5.15 263.1-2.15 259.43 0.85 253.03 0.85L253.03 0.85ZM287.98-21.25L281.58-21.25 281.58-8.6Q281.58-6.8 282.18-6.1 282.78-5.4 284.38-5.4L284.38-5.4Q285.98-5.4 287.43-5.8L287.43-5.8 287.43 0.05Q284.58 0.65 282.73 0.65L282.73 0.65Q278.58 0.65 276.73-1.1 274.88-2.85 274.88-6.5L274.88-6.5 274.88-21.25 271.18-21.25 271.18-27.3 274.88-27.3 274.88-36.8 281.58-36.8 281.58-27.3 287.98-27.3 287.98-21.25ZM303.52-27.95Q308.47-27.95 311.05-26.48 313.62-25 314.47-22.53 315.32-20.05 315.32-16.3L315.32-16.3 315.32 0 308.62 0 308.62-2.55Q306.77-0.85 305-0.1 303.22 0.65 301.12 0.65L301.12 0.65Q296.72 0.65 294.05-1.88 291.37-4.4 291.37-8.8L291.37-8.8Q291.37-13.3 294.15-15.78 296.92-18.25 301.77-18.25L301.77-18.25Q305.72-18.25 308.62-16.7L308.62-16.7Q308.57-18.6 308.15-19.75 307.72-20.9 306.47-21.53 305.22-22.15 302.77-22.15L302.77-22.15 298.07-22.15 298.07-27.95 303.52-27.95ZM302.32-4.7Q305.37-4.7 308.62-7.5L308.62-7.5 308.62-11.9Q305.97-13.25 303.17-13.25L303.17-13.25Q300.97-13.25 299.57-12.23 298.17-11.2 298.17-8.9L298.17-8.9Q298.17-6.65 299.35-5.68 300.52-4.7 302.32-4.7L302.32-4.7ZM337.07-21.25L330.67-21.25 330.67-8.6Q330.67-6.8 331.27-6.1 331.87-5.4 333.47-5.4L333.47-5.4Q335.07-5.4 336.52-5.8L336.52-5.8 336.52 0.05Q333.67 0.65 331.82 0.65L331.82 0.65Q327.67 0.65 325.82-1.1 323.97-2.85 323.97-6.5L323.97-6.5 323.97-21.25 320.27-21.25 320.27-27.3 323.97-27.3 323.97-36.8 330.67-36.8 330.67-27.3 337.07-27.3 337.07-21.25ZM361.42-27.95L368.12-27.95 368.12 0 361.42 0 361.42-2.6Q357.62 0.6 353.27 0.6L353.27 0.6Q347.87 0.6 345.24-2.18 342.62-4.95 342.62-11.15L342.62-11.15 342.62-27.95 349.32-27.95 349.32-11.15Q349.32-8.15 350.49-6.8 351.67-5.45 354.57-5.45L354.57-5.45Q357.97-5.45 361.42-8.35L361.42-8.35 361.42-27.95ZM385.67 0.85Q382.42 0.85 379.87 0.3 377.32-0.25 374.57-1.55L374.57-1.55 374.57-7.7Q377.22-6.2 379.94-5.53 382.67-4.85 385.67-4.85L385.67-4.85Q389.92-4.85 389.92-7.9L389.92-7.9Q389.92-9.2 389.19-9.83 388.47-10.45 386.92-10.85L386.92-10.85 382.82-11.75Q378.97-12.6 376.99-14.53 375.02-16.45 375.02-20.05L375.02-20.05Q375.02-28.75 385.87-28.75L385.87-28.75Q390.62-28.75 395.42-26.95L395.42-26.95 395.42-21.05Q393.57-21.95 391.17-22.5 388.77-23.05 386.17-23.05L386.17-23.05Q381.82-23.05 381.82-20.45L381.82-20.45Q381.82-19.25 382.54-18.7 383.27-18.15 384.72-17.8L384.72-17.8 388.77-16.9Q392.82-15.95 394.77-14.05 396.72-12.15 396.72-8.2L396.72-8.2Q396.72-3.75 393.72-1.45 390.72 0.85 385.67 0.85L385.67 0.85Z" opacity="1" transform="matrix(1,0,0,1,0,0)" fill="black" class="wordmark-text-0" id="SvgjsPath4003"></path></svg></g></svg></g></svg></g></svg></g><g><svg viewBox="0 0 63.19188077808319 63.19188077808319" height="63.19188077808319" width="63.19188077808319"><g><svg></svg></g><g id="SvgjsG4002"><svg viewBox="0 0 63.19188077808319 63.19188077808319" height="63.19188077808319" width="63.19188077808319"><g><path d="M0 31.596c0-17.45 14.146-31.596 31.596-31.596 17.45 0 31.596 14.146 31.596 31.596 0 17.45-14.146 31.596-31.596 31.596-17.45 0-31.596-14.146-31.596-31.596zM31.596 59.208c15.249 0 27.612-12.362 27.611-27.612 0-15.249-12.362-27.612-27.611-27.612-15.249 0-27.612 12.362-27.612 27.612 0 15.249 12.362 27.612 27.612 27.612z" fill="black" stroke="transparent"></path></g><g transform="matrix(1,0,0,1,15.274223114588981,17.516050654513847)"><svg viewBox="0 0 32.643434548905226 28.159779469055497" height="28.159779469055497" width="32.643434548905226"><g><svg xmlns="http://www.w3.org/2000/svg" xmlns:xlink="http://www.w3.org/1999/xlink" version="1.1" x="0" y="0" viewBox="0.507 7.136 98.51299999999999 84.982" enable-background="new 0 0 100 100" xml:space="preserve" height="28.159779469055497" width="32.643434548905226" class="icon-cg-0" data-fill-palette-color="accent" id="SvgjsSvg4001"><g fill="black"><path d="M22.048 42.728l3.781 4.727 12.813 17.784c0.061 0.085 0.131 0.137 0.207 0.163L23.004 90.852 15.187 44.39 22.048 42.728 22.048 42.728zM0.507 55.422c0.008-0.154 0.071-0.324 0.201-0.494l11.41-14.799c0.103-0.132 0.334-0.325 0.667-0.24l8.336 1.908c0.241 0.09 0.235 0.11 0.304 0.181l-6.647 1.611c-0.24 0.061-0.294 0.081-0.435 0.189L0.507 55.422 0.507 55.422zM19.537 87.812l-3.778-4.885c-0.027-0.031-0.048-0.07-0.065-0.111l2.475-1.047L19.537 87.812 19.537 87.812zM21.713 88.462c-0.284 0.136-0.674 0.322-1.066 0.287l-1.74-7.685c-0.065-0.285-0.329-0.418-0.598-0.307l-2.327 0.985c0.62-0.937 1.926-2.029 2.329-2.479L13.357 50.91 1.485 55.936c-0.115 0.047-0.224 0.073-0.325 0.082L14.382 44.89 21.713 88.462 21.713 88.462zM37.129 61.631l8.919-7.785-6.737 10.819L37.129 61.631 37.129 61.631zM39.486 86.967l-15.721 5.151c6.968-5.792 15.873-13.211 23.971-19.97L39.486 86.967 39.486 86.967zM98.23 86.475l-57.626 0.293 8.921-16.026L98.23 86.475 98.23 86.475zM99.02 85.784L50.25 70.055c9.45-7.883 17.344-14.474 18.996-15.854L99.02 85.784 99.02 85.784zM49.038 69.889c-0.044 0.032-0.08 0.07-0.104 0.112C40.737 76.85 31.492 84.555 24.16 90.65l22.048-35.404L49.038 69.889 49.038 69.889zM60.498 60.363l-10.686 8.914-2.798-14.482L60.498 60.363 60.498 60.363zM55.514 57.355l-7.964-3.289 8.808 1.449L55.514 57.355 55.514 57.355zM79.921 8.222c-0.108 1.073-5.56 50.118-5.56 50.118l-4.756-5.04c-0.146-0.159-0.437-0.178-0.604-0.038l-7.755 6.475c-0.039-0.035-4.927-2.043-4.927-2.043l6.82-14.868C63.143 42.824 79.249 9.773 79.921 8.222L79.921 8.222zM32.224 7.136c0.106 0.058 0.21 0.149 0.307 0.277l28.445 38.034-4.242 9.247-10.755-1.771c-0.06-0.01-0.313 0.062-0.359 0.104l-2.346 2.057L32.224 7.136 32.224 7.136zM26.009 46.159l5.342-38.442c0.013-0.084 0.03-0.16 0.056-0.228l11.118 48.247-5.909 5.181L26.009 46.159 26.009 46.159z" fill="black"></path></g></svg></g></svg></g></svg></g></svg></g></svg></g><defs><mask></mask></defs></svg><rect width="395.52" height="52.11652418823951" fill="black" stroke="none" visibility="hidden"></rect></g></mask></svg><rect width="395.52" height="52.11652418823951" fill="black" stroke="none" visibility="hidden"></rect></g></mask><linearGradient x1="0" x2="1" y1="0.578" y2="0.595" id="a2b0c5aa-c526-4799-899d-6e7f39a357d3"><stop stop-color="#6ee2f5" offset="0"></stop><stop stop-color="#6454f0" offset="1"></stop></linearGradient><rect width="395.52" height="52.11652418823951" fill="url(#a2b0c5aa-c526-4799-899d-6e7f39a357d3)" mask="url(#6361fec0-4aa6-4606-b1db-81f6567f3c94)" data-fill-palette-color="accent"></rect></svg><rect width="395.52" height="52.11652418823951" fill="none" stroke="none" visibility="hidden"></rect></g></svg></g></svg>